<mxfile host="app.diagrams.net" agent="Mozilla/5.0 (X11; Linux x86_64; rv:139.0) Gecko/20100101 Firefox/139.0" version="27.1.4" pages="5">
  <diagram id="gZWo3B7QlUxEHqJ_hI2z" name="Page-4">
    <mxGraphModel dx="1547" dy="680" grid="0" gridSize="10" guides="1" tooltips="1" connect="1" arrows="1" fold="1" page="0" pageScale="1" pageWidth="291" pageHeight="413" math="0" shadow="0">
      <root>
        <mxCell id="0" />
        <mxCell id="1" parent="0" />
        <mxCell id="CJryTpQNmuOGRw4IoCqr-4" style="edgeStyle=orthogonalEdgeStyle;rounded=0;orthogonalLoop=1;jettySize=auto;html=1;entryX=0;entryY=0.5;entryDx=0;entryDy=0;" parent="1" source="CJryTpQNmuOGRw4IoCqr-1" target="CJryTpQNmuOGRw4IoCqr-2" edge="1">
          <mxGeometry relative="1" as="geometry" />
        </mxCell>
        <mxCell id="CJryTpQNmuOGRw4IoCqr-1" value="H&lt;sub&gt;1&lt;/sub&gt;(z)" style="whiteSpace=wrap;html=1;aspect=fixed;" parent="1" vertex="1">
          <mxGeometry x="110" y="150" width="50" height="50" as="geometry" />
        </mxCell>
        <mxCell id="CJryTpQNmuOGRw4IoCqr-5" style="edgeStyle=orthogonalEdgeStyle;rounded=0;orthogonalLoop=1;jettySize=auto;html=1;entryX=0;entryY=0.5;entryDx=0;entryDy=0;" parent="1" source="CJryTpQNmuOGRw4IoCqr-2" target="CJryTpQNmuOGRw4IoCqr-3" edge="1">
          <mxGeometry relative="1" as="geometry" />
        </mxCell>
        <mxCell id="CJryTpQNmuOGRw4IoCqr-2" value="+" style="ellipse;whiteSpace=wrap;html=1;aspect=fixed;" parent="1" vertex="1">
          <mxGeometry x="230" y="165" width="20" height="20" as="geometry" />
        </mxCell>
        <mxCell id="CJryTpQNmuOGRw4IoCqr-13" style="edgeStyle=orthogonalEdgeStyle;rounded=0;orthogonalLoop=1;jettySize=auto;html=1;entryX=0;entryY=0.5;entryDx=0;entryDy=0;" parent="1" source="CJryTpQNmuOGRw4IoCqr-3" target="CJryTpQNmuOGRw4IoCqr-12" edge="1">
          <mxGeometry relative="1" as="geometry" />
        </mxCell>
        <mxCell id="CJryTpQNmuOGRw4IoCqr-3" value="H2(z)" style="whiteSpace=wrap;html=1;aspect=fixed;" parent="1" vertex="1">
          <mxGeometry x="319" y="150" width="50" height="50" as="geometry" />
        </mxCell>
        <mxCell id="CJryTpQNmuOGRw4IoCqr-7" style="edgeStyle=orthogonalEdgeStyle;rounded=0;orthogonalLoop=1;jettySize=auto;html=1;entryX=0.5;entryY=1;entryDx=0;entryDy=0;" parent="1" source="CJryTpQNmuOGRw4IoCqr-6" target="CJryTpQNmuOGRw4IoCqr-2" edge="1">
          <mxGeometry relative="1" as="geometry" />
        </mxCell>
        <mxCell id="CJryTpQNmuOGRw4IoCqr-6" value="b&lt;sub&gt;2&lt;/sub&gt;" style="triangle;whiteSpace=wrap;html=1;rotation=90;horizontal=0;verticalAlign=middle;direction=west;" parent="1" vertex="1">
          <mxGeometry x="225" y="210" width="30" height="40" as="geometry" />
        </mxCell>
        <mxCell id="CJryTpQNmuOGRw4IoCqr-11" style="edgeStyle=orthogonalEdgeStyle;rounded=0;orthogonalLoop=1;jettySize=auto;html=1;entryX=0;entryY=0.5;entryDx=0;entryDy=0;" parent="1" source="CJryTpQNmuOGRw4IoCqr-8" target="CJryTpQNmuOGRw4IoCqr-1" edge="1">
          <mxGeometry relative="1" as="geometry" />
        </mxCell>
        <mxCell id="CJryTpQNmuOGRw4IoCqr-8" value="+" style="ellipse;whiteSpace=wrap;html=1;aspect=fixed;" parent="1" vertex="1">
          <mxGeometry x="29" y="165" width="20" height="20" as="geometry" />
        </mxCell>
        <mxCell id="CJryTpQNmuOGRw4IoCqr-9" style="edgeStyle=orthogonalEdgeStyle;rounded=0;orthogonalLoop=1;jettySize=auto;html=1;entryX=0.5;entryY=1;entryDx=0;entryDy=0;" parent="1" source="CJryTpQNmuOGRw4IoCqr-10" target="CJryTpQNmuOGRw4IoCqr-8" edge="1">
          <mxGeometry relative="1" as="geometry" />
        </mxCell>
        <mxCell id="CJryTpQNmuOGRw4IoCqr-10" value="b1" style="triangle;whiteSpace=wrap;html=1;rotation=90;horizontal=0;verticalAlign=middle;direction=west;" parent="1" vertex="1">
          <mxGeometry x="24" y="210" width="30" height="40" as="geometry" />
        </mxCell>
        <mxCell id="CJryTpQNmuOGRw4IoCqr-19" style="edgeStyle=orthogonalEdgeStyle;rounded=0;orthogonalLoop=1;jettySize=auto;html=1;" parent="1" source="CJryTpQNmuOGRw4IoCqr-12" edge="1">
          <mxGeometry relative="1" as="geometry">
            <mxPoint x="540" y="175" as="targetPoint" />
          </mxGeometry>
        </mxCell>
        <mxCell id="CJryTpQNmuOGRw4IoCqr-20" style="edgeStyle=orthogonalEdgeStyle;rounded=0;orthogonalLoop=1;jettySize=auto;html=1;entryX=0;entryY=0.5;entryDx=0;entryDy=0;" parent="1" source="RtBxaYDA31Vj4AzgGgbc-4" target="CJryTpQNmuOGRw4IoCqr-21" edge="1">
          <mxGeometry relative="1" as="geometry">
            <mxPoint x="510" y="280" as="targetPoint" />
            <Array as="points">
              <mxPoint x="510" y="175" />
              <mxPoint x="510" y="285" />
            </Array>
          </mxGeometry>
        </mxCell>
        <mxCell id="CJryTpQNmuOGRw4IoCqr-12" value="" style="triangle;whiteSpace=wrap;html=1;" parent="1" vertex="1">
          <mxGeometry x="440" y="150" width="40" height="50" as="geometry" />
        </mxCell>
        <mxCell id="CJryTpQNmuOGRw4IoCqr-14" value="" style="endArrow=none;html=1;rounded=0;" parent="1" edge="1">
          <mxGeometry width="50" height="50" relative="1" as="geometry">
            <mxPoint x="452" y="187" as="sourcePoint" />
            <mxPoint x="452" y="167" as="targetPoint" />
          </mxGeometry>
        </mxCell>
        <mxCell id="CJryTpQNmuOGRw4IoCqr-16" value="" style="endArrow=none;html=1;rounded=0;" parent="1" edge="1">
          <mxGeometry width="50" height="50" relative="1" as="geometry">
            <mxPoint x="442" y="187" as="sourcePoint" />
            <mxPoint x="452" y="187" as="targetPoint" />
          </mxGeometry>
        </mxCell>
        <mxCell id="CJryTpQNmuOGRw4IoCqr-17" value="" style="endArrow=none;html=1;rounded=0;" parent="1" edge="1">
          <mxGeometry width="50" height="50" relative="1" as="geometry">
            <mxPoint x="452" y="167" as="sourcePoint" />
            <mxPoint x="462" y="167" as="targetPoint" />
          </mxGeometry>
        </mxCell>
        <mxCell id="CJryTpQNmuOGRw4IoCqr-18" value="" style="endArrow=none;html=1;rounded=0;" parent="1" edge="1">
          <mxGeometry width="50" height="50" relative="1" as="geometry">
            <mxPoint x="447" y="176" as="sourcePoint" />
            <mxPoint x="457" y="176" as="targetPoint" />
          </mxGeometry>
        </mxCell>
        <mxCell id="CJryTpQNmuOGRw4IoCqr-22" style="edgeStyle=orthogonalEdgeStyle;rounded=0;orthogonalLoop=1;jettySize=auto;html=1;entryX=0;entryY=0.5;entryDx=0;entryDy=0;" parent="1" source="CJryTpQNmuOGRw4IoCqr-21" target="CJryTpQNmuOGRw4IoCqr-6" edge="1">
          <mxGeometry relative="1" as="geometry" />
        </mxCell>
        <mxCell id="CJryTpQNmuOGRw4IoCqr-23" style="edgeStyle=orthogonalEdgeStyle;rounded=0;orthogonalLoop=1;jettySize=auto;html=1;entryX=0;entryY=0.5;entryDx=0;entryDy=0;" parent="1" source="RtBxaYDA31Vj4AzgGgbc-1" target="CJryTpQNmuOGRw4IoCqr-10" edge="1">
          <mxGeometry relative="1" as="geometry" />
        </mxCell>
        <mxCell id="CJryTpQNmuOGRw4IoCqr-21" value="V&lt;sub&gt;ref&lt;/sub&gt;" style="triangle;whiteSpace=wrap;html=1;rotation=0;horizontal=1;verticalAlign=middle;direction=west;" parent="1" vertex="1">
          <mxGeometry x="430" y="260" width="37" height="50" as="geometry" />
        </mxCell>
        <mxCell id="RtBxaYDA31Vj4AzgGgbc-1" value="" style="shape=waypoint;sketch=0;fillStyle=solid;size=6;pointerEvents=1;points=[];fillColor=none;resizable=0;rotatable=0;perimeter=centerPerimeter;snapToPoint=1;verticalAlign=middle;spacingBottom=0;spacingTop=0;fontFamily=Verdana;fontSize=12;labelPosition=center;verticalLabelPosition=middle;align=left;spacingRight=0;spacingLeft=6;" parent="1" vertex="1">
          <mxGeometry x="220" y="265" width="40" height="40" as="geometry" />
        </mxCell>
        <mxCell id="RtBxaYDA31Vj4AzgGgbc-4" value="" style="shape=waypoint;sketch=0;fillStyle=solid;size=6;pointerEvents=1;points=[];fillColor=none;resizable=0;rotatable=0;perimeter=centerPerimeter;snapToPoint=1;verticalAlign=middle;spacingBottom=0;spacingTop=0;fontFamily=Verdana;fontSize=12;labelPosition=center;verticalLabelPosition=middle;align=left;spacingRight=0;spacingLeft=6;" parent="1" vertex="1">
          <mxGeometry x="490" y="155" width="40" height="40" as="geometry" />
        </mxCell>
        <mxCell id="RtBxaYDA31Vj4AzgGgbc-6" value="&lt;font style=&quot;font-size: 20px;&quot;&gt;-&lt;/font&gt;" style="text;html=1;align=center;verticalAlign=middle;resizable=0;points=[];autosize=1;strokeColor=none;fillColor=none;" parent="1" vertex="1">
          <mxGeometry x="239" y="171" width="30" height="40" as="geometry" />
        </mxCell>
        <mxCell id="RtBxaYDA31Vj4AzgGgbc-7" value="&lt;font style=&quot;font-size: 20px;&quot;&gt;-&lt;/font&gt;" style="text;html=1;align=center;verticalAlign=middle;resizable=0;points=[];autosize=1;strokeColor=none;fillColor=none;" parent="1" vertex="1">
          <mxGeometry x="40" y="171" width="30" height="40" as="geometry" />
        </mxCell>
        <mxCell id="RtBxaYDA31Vj4AzgGgbc-8" value="dout" style="text;html=1;align=center;verticalAlign=middle;resizable=0;points=[];autosize=1;strokeColor=none;fillColor=none;" parent="1" vertex="1">
          <mxGeometry x="490" y="150" width="50" height="30" as="geometry" />
        </mxCell>
        <mxCell id="E4PyiPOslM1uWW0bDdT4-4" style="edgeStyle=orthogonalEdgeStyle;rounded=0;orthogonalLoop=1;jettySize=auto;html=1;entryX=0;entryY=0.5;entryDx=0;entryDy=0;" parent="1" source="E4PyiPOslM1uWW0bDdT4-3" target="CJryTpQNmuOGRw4IoCqr-8" edge="1">
          <mxGeometry relative="1" as="geometry" />
        </mxCell>
        <mxCell id="E4PyiPOslM1uWW0bDdT4-3" value="" style="verticalLabelPosition=bottom;shadow=0;dashed=0;align=center;html=1;verticalAlign=top;shape=mxgraph.electrical.logic_gates.inverting_contact;" parent="1" vertex="1">
          <mxGeometry x="-20" y="170" width="10" height="10" as="geometry" />
        </mxCell>
        <mxCell id="E4PyiPOslM1uWW0bDdT4-5" value="V&lt;sub&gt;in&lt;/sub&gt;" style="text;html=1;align=center;verticalAlign=middle;resizable=0;points=[];autosize=1;strokeColor=none;fillColor=none;" parent="1" vertex="1">
          <mxGeometry x="-20" y="150" width="40" height="30" as="geometry" />
        </mxCell>
      </root>
    </mxGraphModel>
  </diagram>
  <diagram id="gQB5KKi7ZmvJbul4bdGs" name="Page-5">
    <mxGraphModel dx="698" dy="296" grid="0" gridSize="10" guides="1" tooltips="1" connect="1" arrows="1" fold="1" page="0" pageScale="1" pageWidth="291" pageHeight="413" background="none" math="0" shadow="0">
      <root>
        <mxCell id="0" />
        <mxCell id="1" parent="0" />
        <mxCell id="dV9ZF2vHYXp3OjOCAdey-1" style="edgeStyle=orthogonalEdgeStyle;rounded=0;orthogonalLoop=1;jettySize=auto;html=1;entryX=0;entryY=0.5;entryDx=0;entryDy=0;" edge="1" parent="1" source="dV9ZF2vHYXp3OjOCAdey-2" target="dV9ZF2vHYXp3OjOCAdey-4">
          <mxGeometry relative="1" as="geometry" />
        </mxCell>
        <mxCell id="dV9ZF2vHYXp3OjOCAdey-2" value="H&lt;sub&gt;1&lt;/sub&gt;(z)" style="whiteSpace=wrap;html=1;aspect=fixed;" vertex="1" parent="1">
          <mxGeometry x="290" y="250" width="50" height="50" as="geometry" />
        </mxCell>
        <mxCell id="dV9ZF2vHYXp3OjOCAdey-3" style="edgeStyle=orthogonalEdgeStyle;rounded=0;orthogonalLoop=1;jettySize=auto;html=1;entryX=0;entryY=0.5;entryDx=0;entryDy=0;" edge="1" parent="1" source="dV9ZF2vHYXp3OjOCAdey-4" target="dV9ZF2vHYXp3OjOCAdey-6">
          <mxGeometry relative="1" as="geometry" />
        </mxCell>
        <mxCell id="dV9ZF2vHYXp3OjOCAdey-4" value="+" style="ellipse;whiteSpace=wrap;html=1;aspect=fixed;" vertex="1" parent="1">
          <mxGeometry x="410" y="265" width="20" height="20" as="geometry" />
        </mxCell>
        <mxCell id="dV9ZF2vHYXp3OjOCAdey-5" style="edgeStyle=orthogonalEdgeStyle;rounded=0;orthogonalLoop=1;jettySize=auto;html=1;entryX=0;entryY=0.5;entryDx=0;entryDy=0;" edge="1" parent="1" source="dV9ZF2vHYXp3OjOCAdey-6">
          <mxGeometry relative="1" as="geometry">
            <mxPoint x="620" y="275" as="targetPoint" />
          </mxGeometry>
        </mxCell>
        <mxCell id="dV9ZF2vHYXp3OjOCAdey-6" value="H2(z)" style="whiteSpace=wrap;html=1;aspect=fixed;" vertex="1" parent="1">
          <mxGeometry x="499" y="250" width="50" height="50" as="geometry" />
        </mxCell>
        <mxCell id="dV9ZF2vHYXp3OjOCAdey-7" style="edgeStyle=orthogonalEdgeStyle;rounded=0;orthogonalLoop=1;jettySize=auto;html=1;entryX=0.5;entryY=1;entryDx=0;entryDy=0;" edge="1" parent="1" source="dV9ZF2vHYXp3OjOCAdey-8" target="dV9ZF2vHYXp3OjOCAdey-4">
          <mxGeometry relative="1" as="geometry" />
        </mxCell>
        <mxCell id="dV9ZF2vHYXp3OjOCAdey-8" value="b&lt;sub&gt;2&lt;/sub&gt;" style="triangle;whiteSpace=wrap;html=1;rotation=90;horizontal=0;verticalAlign=middle;direction=west;" vertex="1" parent="1">
          <mxGeometry x="405" y="310" width="30" height="40" as="geometry" />
        </mxCell>
        <mxCell id="dV9ZF2vHYXp3OjOCAdey-9" style="edgeStyle=orthogonalEdgeStyle;rounded=0;orthogonalLoop=1;jettySize=auto;html=1;entryX=0;entryY=0.5;entryDx=0;entryDy=0;" edge="1" parent="1" source="dV9ZF2vHYXp3OjOCAdey-10" target="dV9ZF2vHYXp3OjOCAdey-2">
          <mxGeometry relative="1" as="geometry" />
        </mxCell>
        <mxCell id="dV9ZF2vHYXp3OjOCAdey-10" value="+" style="ellipse;whiteSpace=wrap;html=1;aspect=fixed;" vertex="1" parent="1">
          <mxGeometry x="209" y="265" width="20" height="20" as="geometry" />
        </mxCell>
        <mxCell id="dV9ZF2vHYXp3OjOCAdey-11" style="edgeStyle=orthogonalEdgeStyle;rounded=0;orthogonalLoop=1;jettySize=auto;html=1;entryX=0.5;entryY=1;entryDx=0;entryDy=0;" edge="1" parent="1" source="dV9ZF2vHYXp3OjOCAdey-12" target="dV9ZF2vHYXp3OjOCAdey-10">
          <mxGeometry relative="1" as="geometry" />
        </mxCell>
        <mxCell id="dV9ZF2vHYXp3OjOCAdey-12" value="b1" style="triangle;whiteSpace=wrap;html=1;rotation=90;horizontal=0;verticalAlign=middle;direction=west;" vertex="1" parent="1">
          <mxGeometry x="204" y="310" width="30" height="40" as="geometry" />
        </mxCell>
        <mxCell id="dV9ZF2vHYXp3OjOCAdey-13" style="edgeStyle=orthogonalEdgeStyle;rounded=0;orthogonalLoop=1;jettySize=auto;html=1;" edge="1" parent="1">
          <mxGeometry relative="1" as="geometry">
            <mxPoint x="701" y="275" as="targetPoint" />
            <mxPoint x="641" y="275" as="sourcePoint" />
          </mxGeometry>
        </mxCell>
        <mxCell id="dV9ZF2vHYXp3OjOCAdey-20" style="edgeStyle=orthogonalEdgeStyle;rounded=0;orthogonalLoop=1;jettySize=auto;html=1;entryX=0;entryY=0.5;entryDx=0;entryDy=0;exitX=0.5;exitY=1;exitDx=0;exitDy=0;" edge="1" parent="1" source="dV9ZF2vHYXp3OjOCAdey-31" target="dV9ZF2vHYXp3OjOCAdey-8">
          <mxGeometry relative="1" as="geometry">
            <mxPoint x="610" y="385" as="sourcePoint" />
            <Array as="points">
              <mxPoint x="630" y="380" />
              <mxPoint x="420" y="380" />
            </Array>
          </mxGeometry>
        </mxCell>
        <mxCell id="dV9ZF2vHYXp3OjOCAdey-21" style="edgeStyle=orthogonalEdgeStyle;rounded=0;orthogonalLoop=1;jettySize=auto;html=1;entryX=0;entryY=0.5;entryDx=0;entryDy=0;" edge="1" parent="1" source="dV9ZF2vHYXp3OjOCAdey-23" target="dV9ZF2vHYXp3OjOCAdey-12">
          <mxGeometry relative="1" as="geometry">
            <Array as="points">
              <mxPoint x="420" y="380" />
              <mxPoint x="219" y="380" />
            </Array>
          </mxGeometry>
        </mxCell>
        <mxCell id="dV9ZF2vHYXp3OjOCAdey-23" value="" style="shape=waypoint;sketch=0;fillStyle=solid;size=6;pointerEvents=1;points=[];fillColor=none;resizable=0;rotatable=0;perimeter=centerPerimeter;snapToPoint=1;verticalAlign=middle;spacingBottom=0;spacingTop=0;fontFamily=Verdana;fontSize=12;labelPosition=center;verticalLabelPosition=middle;align=left;spacingRight=0;spacingLeft=6;" vertex="1" parent="1">
          <mxGeometry x="400" y="360" width="40" height="40" as="geometry" />
        </mxCell>
        <mxCell id="dV9ZF2vHYXp3OjOCAdey-25" value="&lt;font style=&quot;font-size: 20px;&quot;&gt;-&lt;/font&gt;" style="text;html=1;align=center;verticalAlign=middle;resizable=0;points=[];autosize=1;strokeColor=none;fillColor=none;" vertex="1" parent="1">
          <mxGeometry x="419" y="271" width="30" height="40" as="geometry" />
        </mxCell>
        <mxCell id="dV9ZF2vHYXp3OjOCAdey-26" value="&lt;font style=&quot;font-size: 20px;&quot;&gt;-&lt;/font&gt;" style="text;html=1;align=center;verticalAlign=middle;resizable=0;points=[];autosize=1;strokeColor=none;fillColor=none;" vertex="1" parent="1">
          <mxGeometry x="220" y="271" width="30" height="40" as="geometry" />
        </mxCell>
        <mxCell id="dV9ZF2vHYXp3OjOCAdey-28" style="edgeStyle=orthogonalEdgeStyle;rounded=0;orthogonalLoop=1;jettySize=auto;html=1;entryX=0;entryY=0.5;entryDx=0;entryDy=0;" edge="1" parent="1" source="dV9ZF2vHYXp3OjOCAdey-29" target="dV9ZF2vHYXp3OjOCAdey-10">
          <mxGeometry relative="1" as="geometry" />
        </mxCell>
        <mxCell id="dV9ZF2vHYXp3OjOCAdey-29" value="" style="verticalLabelPosition=bottom;shadow=0;dashed=0;align=center;html=1;verticalAlign=top;shape=mxgraph.electrical.logic_gates.inverting_contact;" vertex="1" parent="1">
          <mxGeometry x="160" y="270" width="10" height="10" as="geometry" />
        </mxCell>
        <mxCell id="dV9ZF2vHYXp3OjOCAdey-30" value="V&lt;sub&gt;in&lt;/sub&gt;" style="text;html=1;align=center;verticalAlign=middle;resizable=0;points=[];autosize=1;strokeColor=none;fillColor=none;" vertex="1" parent="1">
          <mxGeometry x="160" y="250" width="40" height="30" as="geometry" />
        </mxCell>
        <mxCell id="dV9ZF2vHYXp3OjOCAdey-31" value="+" style="ellipse;whiteSpace=wrap;html=1;aspect=fixed;" vertex="1" parent="1">
          <mxGeometry x="620" y="265" width="20" height="20" as="geometry" />
        </mxCell>
        <mxCell id="dV9ZF2vHYXp3OjOCAdey-33" style="edgeStyle=orthogonalEdgeStyle;rounded=0;orthogonalLoop=1;jettySize=auto;html=1;entryX=0.5;entryY=0;entryDx=0;entryDy=0;" edge="1" parent="1" target="dV9ZF2vHYXp3OjOCAdey-31">
          <mxGeometry relative="1" as="geometry">
            <mxPoint x="630" y="228" as="sourcePoint" />
            <Array as="points">
              <mxPoint x="630" y="240" />
              <mxPoint x="630" y="240" />
            </Array>
          </mxGeometry>
        </mxCell>
        <mxCell id="dV9ZF2vHYXp3OjOCAdey-34" value="&lt;font style=&quot;font-size: 11px;&quot;&gt;E(z)&lt;/font&gt;" style="text;html=1;align=center;verticalAlign=middle;resizable=0;points=[];autosize=1;strokeColor=none;fillColor=none;" vertex="1" parent="1">
          <mxGeometry x="620" y="220" width="40" height="30" as="geometry" />
        </mxCell>
        <mxCell id="dV9ZF2vHYXp3OjOCAdey-35" value="&lt;font style=&quot;font-size: 11px;&quot;&gt;V(z)&lt;/font&gt;" style="text;html=1;align=center;verticalAlign=middle;resizable=0;points=[];autosize=1;strokeColor=none;fillColor=none;" vertex="1" parent="1">
          <mxGeometry x="660" y="250" width="40" height="30" as="geometry" />
        </mxCell>
      </root>
    </mxGraphModel>
  </diagram>
  <diagram id="8VHMNtIWuoGR1zw1A4Sn" name="Page-3">
    <mxGraphModel dx="850" dy="267" grid="0" gridSize="10" guides="1" tooltips="1" connect="1" arrows="1" fold="1" page="0" pageScale="1" pageWidth="291" pageHeight="413" math="1" shadow="0">
      <root>
        <mxCell id="0" />
        <mxCell id="1" parent="0" />
        <mxCell id="N3Xqp_bj4aA_QfKJzf-Z-3" style="edgeStyle=orthogonalEdgeStyle;rounded=0;orthogonalLoop=1;jettySize=auto;html=1;entryX=0;entryY=0.5;entryDx=0;entryDy=0;labelBackgroundColor=none;" edge="1" parent="1" source="N3Xqp_bj4aA_QfKJzf-Z-1" target="N3Xqp_bj4aA_QfKJzf-Z-2">
          <mxGeometry relative="1" as="geometry" />
        </mxCell>
        <mxCell id="N3Xqp_bj4aA_QfKJzf-Z-1" value="&lt;div&gt;&lt;font&gt;$$\Delta\Sigma$$&lt;/font&gt;&lt;/div&gt;" style="whiteSpace=wrap;html=1;aspect=fixed;fontSize=22;verticalAlign=middle;textDirection=vertical-lr;labelBackgroundColor=none;" vertex="1" parent="1">
          <mxGeometry x="40" y="80" width="60" height="60" as="geometry" />
        </mxCell>
        <mxCell id="gQUA27fmuFWmjgdwy_Er-4" style="edgeStyle=orthogonalEdgeStyle;rounded=0;orthogonalLoop=1;jettySize=auto;html=1;labelBackgroundColor=none;" edge="1" parent="1" source="N3Xqp_bj4aA_QfKJzf-Z-2">
          <mxGeometry relative="1" as="geometry">
            <mxPoint x="320" y="110" as="targetPoint" />
          </mxGeometry>
        </mxCell>
        <mxCell id="N3Xqp_bj4aA_QfKJzf-Z-2" value="Digital Filter" style="rounded=0;whiteSpace=wrap;html=1;fontSize=17;labelBackgroundColor=none;" vertex="1" parent="1">
          <mxGeometry x="160" y="85" width="104" height="50" as="geometry" />
        </mxCell>
        <mxCell id="N3Xqp_bj4aA_QfKJzf-Z-4" value="&lt;div&gt;&lt;font style=&quot;font-size: 15px;&quot;&gt;Vin&lt;/font&gt;&lt;/div&gt;" style="text;html=1;align=center;verticalAlign=middle;resizable=0;points=[];autosize=1;strokeColor=none;fillColor=none;labelBackgroundColor=none;" vertex="1" parent="1">
          <mxGeometry x="-70" y="95" width="50" height="30" as="geometry" />
        </mxCell>
        <mxCell id="gQUA27fmuFWmjgdwy_Er-1" style="edgeStyle=orthogonalEdgeStyle;rounded=0;orthogonalLoop=1;jettySize=auto;html=1;entryX=0;entryY=0.5;entryDx=0;entryDy=0;labelBackgroundColor=none;" edge="1" parent="1" source="gQUA27fmuFWmjgdwy_Er-2">
          <mxGeometry relative="1" as="geometry">
            <mxPoint x="40" y="110" as="targetPoint" />
          </mxGeometry>
        </mxCell>
        <mxCell id="gQUA27fmuFWmjgdwy_Er-2" value="" style="verticalLabelPosition=bottom;shadow=0;dashed=0;align=center;html=1;verticalAlign=top;shape=mxgraph.electrical.logic_gates.inverting_contact;labelBackgroundColor=none;" vertex="1" parent="1">
          <mxGeometry x="-30" y="105" width="10" height="10" as="geometry" />
        </mxCell>
        <mxCell id="gQUA27fmuFWmjgdwy_Er-5" value="&lt;font style=&quot;font-size: 15px;&quot;&gt;Q&lt;sub&gt;out&lt;/sub&gt;&lt;/font&gt;" style="text;html=1;align=center;verticalAlign=middle;resizable=0;points=[];autosize=1;strokeColor=none;fillColor=none;labelBackgroundColor=none;" vertex="1" parent="1">
          <mxGeometry x="280" y="80" width="50" height="30" as="geometry" />
        </mxCell>
      </root>
    </mxGraphModel>
  </diagram>
  <diagram id="soX1_EFC0Rq3kYVKs3pr" name="Page-6">
    <mxGraphModel dx="1055" dy="389" grid="0" gridSize="10" guides="1" tooltips="1" connect="1" arrows="1" fold="1" page="0" pageScale="1" pageWidth="291" pageHeight="413" math="1" shadow="0">
      <root>
        <mxCell id="0" />
        <mxCell id="1" parent="0" />
        <mxCell id="g7ns7u0CC3hlnOEi17j1-4" style="edgeStyle=orthogonalEdgeStyle;rounded=0;orthogonalLoop=1;jettySize=auto;html=1;labelBackgroundColor=none;" edge="1" parent="1" source="1_ZncWEBZtpwwkyxh1zw-4" target="g7ns7u0CC3hlnOEi17j1-1">
          <mxGeometry relative="1" as="geometry" />
        </mxCell>
        <mxCell id="1_ZncWEBZtpwwkyxh1zw-4" value="&lt;font style=&quot;font-size: 17px;&quot;&gt;$$z^{-1}$$&lt;/font&gt;" style="rounded=0;whiteSpace=wrap;html=1;labelBackgroundColor=none;" vertex="1" parent="1">
          <mxGeometry x="68" y="91" width="60" height="45" as="geometry" />
        </mxCell>
        <mxCell id="g7ns7u0CC3hlnOEi17j1-13" style="edgeStyle=orthogonalEdgeStyle;rounded=0;orthogonalLoop=1;jettySize=auto;html=1;entryX=0.5;entryY=1;entryDx=0;entryDy=0;labelBackgroundColor=none;" edge="1" parent="1" source="1_ZncWEBZtpwwkyxh1zw-5" target="g7ns7u0CC3hlnOEi17j1-9">
          <mxGeometry relative="1" as="geometry" />
        </mxCell>
        <mxCell id="1_ZncWEBZtpwwkyxh1zw-5" value="&lt;font style=&quot;font-size: 17px;&quot;&gt;$$z^{-osr}$$&lt;/font&gt;" style="rounded=0;whiteSpace=wrap;html=1;labelBackgroundColor=none;" vertex="1" parent="1">
          <mxGeometry x="275" y="91" width="60" height="45" as="geometry" />
        </mxCell>
        <mxCell id="g7ns7u0CC3hlnOEi17j1-12" style="edgeStyle=orthogonalEdgeStyle;rounded=0;orthogonalLoop=1;jettySize=auto;html=1;entryX=0;entryY=0.5;entryDx=0;entryDy=0;labelBackgroundColor=none;" edge="1" parent="1" source="g7ns7u0CC3hlnOEi17j1-1" target="g7ns7u0CC3hlnOEi17j1-9">
          <mxGeometry relative="1" as="geometry" />
        </mxCell>
        <mxCell id="g7ns7u0CC3hlnOEi17j1-1" value="" style="group;movable=1;resizable=1;rotatable=1;deletable=1;editable=1;locked=0;connectable=1;labelBackgroundColor=none;" vertex="1" connectable="0" parent="1">
          <mxGeometry x="6" y="52" width="26" height="28" as="geometry" />
        </mxCell>
        <mxCell id="1_ZncWEBZtpwwkyxh1zw-6" value="" style="ellipse;whiteSpace=wrap;html=1;aspect=fixed;fontSize=17;textShadow=1;movable=0;resizable=0;rotatable=0;deletable=0;editable=0;locked=1;connectable=0;" vertex="1" parent="g7ns7u0CC3hlnOEi17j1-1">
          <mxGeometry y="1" width="26" height="26" as="geometry" />
        </mxCell>
        <mxCell id="1_ZncWEBZtpwwkyxh1zw-7" value="&lt;div&gt;$$+$$&lt;/div&gt;" style="text;html=1;align=center;verticalAlign=middle;whiteSpace=wrap;rounded=0;fontSize=15;movable=0;resizable=0;rotatable=0;deletable=0;editable=0;locked=1;connectable=0;" vertex="1" parent="g7ns7u0CC3hlnOEi17j1-1">
          <mxGeometry x="4.5" width="17" height="28" as="geometry" />
        </mxCell>
        <mxCell id="3-cNEoHnSmUtxSrV5ZhE-4" style="edgeStyle=orthogonalEdgeStyle;rounded=0;orthogonalLoop=1;jettySize=auto;html=1;labelBackgroundColor=none;" edge="1" parent="1" source="g7ns7u0CC3hlnOEi17j1-9">
          <mxGeometry relative="1" as="geometry">
            <mxPoint x="450" y="66" as="targetPoint" />
          </mxGeometry>
        </mxCell>
        <mxCell id="g7ns7u0CC3hlnOEi17j1-9" value="" style="group;movable=1;resizable=1;rotatable=1;deletable=1;editable=1;locked=0;connectable=1;labelBackgroundColor=none;" vertex="1" connectable="0" parent="1">
          <mxGeometry x="381" y="52" width="26" height="28" as="geometry" />
        </mxCell>
        <mxCell id="g7ns7u0CC3hlnOEi17j1-10" value="" style="ellipse;whiteSpace=wrap;html=1;aspect=fixed;fontSize=17;textShadow=1;movable=0;resizable=0;rotatable=0;deletable=0;editable=0;locked=1;connectable=0;" vertex="1" parent="g7ns7u0CC3hlnOEi17j1-9">
          <mxGeometry y="1" width="26" height="26" as="geometry" />
        </mxCell>
        <mxCell id="g7ns7u0CC3hlnOEi17j1-11" value="&lt;div&gt;$$+$$&lt;/div&gt;" style="text;html=1;align=center;verticalAlign=middle;whiteSpace=wrap;rounded=0;fontSize=15;movable=0;resizable=0;rotatable=0;deletable=0;editable=0;locked=1;connectable=0;" vertex="1" parent="g7ns7u0CC3hlnOEi17j1-9">
          <mxGeometry x="4.5" width="17" height="28" as="geometry" />
        </mxCell>
        <mxCell id="g7ns7u0CC3hlnOEi17j1-14" value="" style="endArrow=classic;html=1;rounded=0;entryX=1;entryY=0.5;entryDx=0;entryDy=0;labelBackgroundColor=none;" edge="1" parent="1" target="1_ZncWEBZtpwwkyxh1zw-4">
          <mxGeometry width="50" height="50" relative="1" as="geometry">
            <mxPoint x="162" y="66" as="sourcePoint" />
            <mxPoint x="133" y="112.50000000000003" as="targetPoint" />
            <Array as="points">
              <mxPoint x="162" y="114" />
            </Array>
          </mxGeometry>
        </mxCell>
        <mxCell id="g7ns7u0CC3hlnOEi17j1-17" value="" style="endArrow=classic;html=1;rounded=0;entryX=1;entryY=0.5;entryDx=0;entryDy=0;labelBackgroundColor=none;" edge="1" parent="1">
          <mxGeometry width="50" height="50" relative="1" as="geometry">
            <mxPoint x="241" y="66" as="sourcePoint" />
            <mxPoint x="275" y="114" as="targetPoint" />
            <Array as="points">
              <mxPoint x="241" y="114" />
            </Array>
          </mxGeometry>
        </mxCell>
        <mxCell id="3-cNEoHnSmUtxSrV5ZhE-1" value="$$X(z)$$" style="text;html=1;align=center;verticalAlign=middle;resizable=0;points=[];autosize=1;strokeColor=none;fillColor=none;labelBackgroundColor=none;" vertex="1" parent="1">
          <mxGeometry x="-114" y="52" width="70" height="30" as="geometry" />
        </mxCell>
        <mxCell id="3-cNEoHnSmUtxSrV5ZhE-2" style="edgeStyle=orthogonalEdgeStyle;rounded=0;orthogonalLoop=1;jettySize=auto;html=1;entryX=0;entryY=0.5;entryDx=0;entryDy=0;labelBackgroundColor=none;" edge="1" parent="1" source="3-cNEoHnSmUtxSrV5ZhE-3">
          <mxGeometry relative="1" as="geometry">
            <mxPoint x="6" y="67" as="targetPoint" />
          </mxGeometry>
        </mxCell>
        <mxCell id="3-cNEoHnSmUtxSrV5ZhE-3" value="" style="verticalLabelPosition=bottom;shadow=0;dashed=0;align=center;html=1;verticalAlign=top;shape=mxgraph.electrical.logic_gates.inverting_contact;labelBackgroundColor=none;" vertex="1" parent="1">
          <mxGeometry x="-64" y="62" width="10" height="10" as="geometry" />
        </mxCell>
        <mxCell id="3-cNEoHnSmUtxSrV5ZhE-5" value="$$Y(z)$$" style="text;html=1;align=center;verticalAlign=middle;resizable=0;points=[];autosize=1;strokeColor=none;fillColor=none;labelBackgroundColor=none;" vertex="1" parent="1">
          <mxGeometry x="405" y="38" width="70" height="30" as="geometry" />
        </mxCell>
      </root>
    </mxGraphModel>
  </diagram>
  <diagram id="fG1_wIstrRRJM2FZDVzQ" name="Page-7">
    <mxGraphModel dx="1547" dy="680" grid="0" gridSize="10" guides="1" tooltips="1" connect="1" arrows="1" fold="1" page="0" pageScale="1" pageWidth="291" pageHeight="413" math="1" shadow="0">
      <root>
        <mxCell id="0" />
        <mxCell id="1" parent="0" />
        <mxCell id="2fbRog4UQWhd4MV1ygr6-48" style="endArrow=none;edgeStyle=orthogonalEdgeStyle;rounded=0;orthogonalLoop=1;jettySize=auto;html=1;" edge="1" parent="1" source="i_ivRI5nVCW75gqRr2es-1">
          <mxGeometry relative="1" as="geometry">
            <mxPoint x="350" y="200" as="targetPoint" />
          </mxGeometry>
        </mxCell>
        <mxCell id="i_ivRI5nVCW75gqRr2es-1" value="" style="verticalLabelPosition=bottom;shadow=0;dashed=0;align=center;html=1;verticalAlign=top;shape=mxgraph.electrical.abstract.operational_amp_1;" vertex="1" parent="1">
          <mxGeometry x="151" y="155" width="98" height="90" as="geometry" />
        </mxCell>
        <mxCell id="i_ivRI5nVCW75gqRr2es-2" value="" style="pointerEvents=1;verticalLabelPosition=bottom;shadow=0;dashed=0;align=center;html=1;verticalAlign=top;shape=mxgraph.electrical.signal_sources.signal_ground;" vertex="1" parent="1">
          <mxGeometry x="99" y="251" width="38" height="25" as="geometry" />
        </mxCell>
        <mxCell id="i_ivRI5nVCW75gqRr2es-4" style="endArrow=none;edgeStyle=orthogonalEdgeStyle;rounded=0;orthogonalLoop=1;jettySize=auto;html=1;entryX=0;entryY=0.835;entryDx=0;entryDy=0;entryPerimeter=0;" edge="1" parent="1" source="i_ivRI5nVCW75gqRr2es-2" target="i_ivRI5nVCW75gqRr2es-1">
          <mxGeometry relative="1" as="geometry">
            <Array as="points">
              <mxPoint x="118" y="230" />
              <mxPoint x="131" y="230" />
            </Array>
          </mxGeometry>
        </mxCell>
        <mxCell id="NL0Lb7cE0S0yHoRJVN3A-1" value="" style="pointerEvents=1;verticalLabelPosition=bottom;shadow=0;dashed=0;align=center;html=1;verticalAlign=top;shape=mxgraph.electrical.capacitors.capacitor_1;" vertex="1" parent="1">
          <mxGeometry x="161.5" y="74" width="77" height="40" as="geometry" />
        </mxCell>
        <mxCell id="NL0Lb7cE0S0yHoRJVN3A-2" style="endArrow=none;edgeStyle=orthogonalEdgeStyle;rounded=0;orthogonalLoop=1;jettySize=auto;html=1;entryX=1;entryY=0.5;entryDx=0;entryDy=0;entryPerimeter=0;" edge="1" parent="1" source="NL0Lb7cE0S0yHoRJVN3A-1" target="i_ivRI5nVCW75gqRr2es-1">
          <mxGeometry relative="1" as="geometry">
            <Array as="points">
              <mxPoint x="289" y="94" />
              <mxPoint x="289" y="200" />
            </Array>
          </mxGeometry>
        </mxCell>
        <mxCell id="NL0Lb7cE0S0yHoRJVN3A-5" value="" style="pointerEvents=1;verticalLabelPosition=bottom;shadow=0;dashed=0;align=center;html=1;verticalAlign=top;shape=mxgraph.electrical.capacitors.capacitor_1;" vertex="1" parent="1">
          <mxGeometry x="-87" y="150" width="77" height="40" as="geometry" />
        </mxCell>
        <mxCell id="NL0Lb7cE0S0yHoRJVN3A-7" value="" style="endArrow=none;html=1;rounded=0;exitX=1;exitY=0.5;exitDx=0;exitDy=0;exitPerimeter=0;" edge="1" parent="1" source="NL0Lb7cE0S0yHoRJVN3A-5">
          <mxGeometry width="50" height="50" relative="1" as="geometry">
            <mxPoint x="70" y="245" as="sourcePoint" />
            <mxPoint x="14" y="157" as="targetPoint" />
          </mxGeometry>
        </mxCell>
        <mxCell id="NL0Lb7cE0S0yHoRJVN3A-8" value="" style="endArrow=none;html=1;rounded=0;entryX=0;entryY=0.165;entryDx=0;entryDy=0;entryPerimeter=0;" edge="1" parent="1" source="ELsuJAQM_qr_vNhGC3J8-1" target="i_ivRI5nVCW75gqRr2es-1">
          <mxGeometry width="50" height="50" relative="1" as="geometry">
            <mxPoint x="19" y="171" as="sourcePoint" />
            <mxPoint x="132" y="170" as="targetPoint" />
          </mxGeometry>
        </mxCell>
        <mxCell id="ELsuJAQM_qr_vNhGC3J8-2" value="" style="endArrow=none;edgeStyle=orthogonalEdgeStyle;rounded=0;orthogonalLoop=1;jettySize=auto;html=1;entryDx=0;entryDy=0;entryPerimeter=0;" edge="1" parent="1" target="ELsuJAQM_qr_vNhGC3J8-1">
          <mxGeometry relative="1" as="geometry">
            <mxPoint x="162" y="94" as="sourcePoint" />
            <mxPoint x="151" y="169.85000000000002" as="targetPoint" />
            <Array as="points">
              <mxPoint x="162" y="94" />
              <mxPoint x="61" y="94" />
            </Array>
          </mxGeometry>
        </mxCell>
        <mxCell id="ELsuJAQM_qr_vNhGC3J8-3" value="" style="shape=waypoint;sketch=0;fillStyle=solid;size=6;pointerEvents=1;points=[];fillColor=none;resizable=0;rotatable=0;perimeter=centerPerimeter;snapToPoint=1;verticalAlign=middle;spacingBottom=0;spacingTop=0;fontFamily=Verdana;fontSize=12;labelPosition=center;verticalLabelPosition=middle;align=left;spacingRight=0;spacingLeft=6;" vertex="1" parent="1">
          <mxGeometry x="-30" y="150" width="40" height="40" as="geometry" />
        </mxCell>
        <mxCell id="ELsuJAQM_qr_vNhGC3J8-4" value="" style="endArrow=none;html=1;rounded=0;" edge="1" parent="1" target="ELsuJAQM_qr_vNhGC3J8-3">
          <mxGeometry width="50" height="50" relative="1" as="geometry">
            <mxPoint x="-10" y="207" as="sourcePoint" />
            <mxPoint x="92" y="339" as="targetPoint" />
          </mxGeometry>
        </mxCell>
        <mxCell id="ELsuJAQM_qr_vNhGC3J8-8" style="endArrow=none;edgeStyle=orthogonalEdgeStyle;rounded=0;orthogonalLoop=1;jettySize=auto;html=1;" edge="1" parent="1" source="ELsuJAQM_qr_vNhGC3J8-5">
          <mxGeometry relative="1" as="geometry">
            <mxPoint x="-10" y="243.1709380842682" as="targetPoint" />
          </mxGeometry>
        </mxCell>
        <mxCell id="ELsuJAQM_qr_vNhGC3J8-5" value="" style="pointerEvents=1;verticalLabelPosition=bottom;shadow=0;dashed=0;align=center;html=1;verticalAlign=top;shape=mxgraph.electrical.signal_sources.signal_ground;" vertex="1" parent="1">
          <mxGeometry x="-29" y="251" width="38" height="25" as="geometry" />
        </mxCell>
        <mxCell id="ELsuJAQM_qr_vNhGC3J8-14" value="" style="group;rotation=90;" vertex="1" connectable="0" parent="1">
          <mxGeometry x="-31" y="187" width="44" height="40" as="geometry" />
        </mxCell>
        <mxCell id="ELsuJAQM_qr_vNhGC3J8-11" value="" style="endArrow=none;html=1;rounded=0;exitX=1;exitY=0.5;exitDx=0;exitDy=0;exitPerimeter=0;" edge="1" parent="ELsuJAQM_qr_vNhGC3J8-14">
          <mxGeometry width="50" height="50" relative="1" as="geometry">
            <mxPoint x="22" y="18" as="sourcePoint" />
            <mxPoint x="35" y="42" as="targetPoint" />
          </mxGeometry>
        </mxCell>
        <mxCell id="ELsuJAQM_qr_vNhGC3J8-12" value="" style="shape=waypoint;sketch=0;fillStyle=solid;size=6;pointerEvents=1;points=[];fillColor=none;resizable=0;rotatable=0;perimeter=centerPerimeter;snapToPoint=1;verticalAlign=middle;spacingBottom=0;spacingTop=0;fontFamily=Verdana;fontSize=12;labelPosition=center;verticalLabelPosition=middle;align=left;spacingRight=0;spacingLeft=6;rotation=90;" vertex="1" parent="ELsuJAQM_qr_vNhGC3J8-14">
          <mxGeometry x="2" y="-2" width="40" height="40" as="geometry" />
        </mxCell>
        <mxCell id="2fbRog4UQWhd4MV1ygr6-72" value="" style="endArrow=classic;html=1;rounded=0;curved=1;" edge="1" parent="ELsuJAQM_qr_vNhGC3J8-14">
          <mxGeometry width="50" height="50" relative="1" as="geometry">
            <mxPoint x="32" y="21" as="sourcePoint" />
            <mxPoint x="12" y="34" as="targetPoint" />
            <Array as="points">
              <mxPoint x="38" y="40" />
            </Array>
          </mxGeometry>
        </mxCell>
        <mxCell id="ELsuJAQM_qr_vNhGC3J8-18" value="" style="group" vertex="1" connectable="0" parent="1">
          <mxGeometry x="-162" y="150" width="76" height="40" as="geometry" />
        </mxCell>
        <mxCell id="ELsuJAQM_qr_vNhGC3J8-15" value="" style="endArrow=none;html=1;rounded=0;exitX=1;exitY=0.5;exitDx=0;exitDy=0;exitPerimeter=0;" edge="1" parent="ELsuJAQM_qr_vNhGC3J8-18">
          <mxGeometry width="50" height="50" relative="1" as="geometry">
            <mxPoint x="20" y="20" as="sourcePoint" />
            <mxPoint x="44" y="7" as="targetPoint" />
          </mxGeometry>
        </mxCell>
        <mxCell id="ELsuJAQM_qr_vNhGC3J8-16" value="" style="shape=waypoint;sketch=0;fillStyle=solid;size=6;pointerEvents=1;points=[];fillColor=none;resizable=0;rotatable=0;perimeter=centerPerimeter;snapToPoint=1;verticalAlign=middle;spacingBottom=0;spacingTop=0;fontFamily=Verdana;fontSize=12;labelPosition=center;verticalLabelPosition=middle;align=left;spacingRight=0;spacingLeft=6;" vertex="1" parent="ELsuJAQM_qr_vNhGC3J8-18">
          <mxGeometry width="40" height="40" as="geometry" />
        </mxCell>
        <mxCell id="2fbRog4UQWhd4MV1ygr6-1" style="endArrow=none;edgeStyle=orthogonalEdgeStyle;rounded=0;orthogonalLoop=1;jettySize=auto;html=1;entryX=0;entryY=0.5;entryDx=0;entryDy=0;" edge="1" parent="ELsuJAQM_qr_vNhGC3J8-18" source="2fbRog4UQWhd4MV1ygr6-2">
          <mxGeometry relative="1" as="geometry">
            <mxPoint x="19" y="20" as="targetPoint" />
          </mxGeometry>
        </mxCell>
        <mxCell id="2fbRog4UQWhd4MV1ygr6-2" value="" style="verticalLabelPosition=bottom;shadow=0;dashed=0;align=center;html=1;verticalAlign=top;shape=mxgraph.electrical.logic_gates.inverting_contact;" vertex="1" parent="ELsuJAQM_qr_vNhGC3J8-18">
          <mxGeometry x="-30" y="15" width="10" height="10" as="geometry" />
        </mxCell>
        <mxCell id="2fbRog4UQWhd4MV1ygr6-77" value="" style="endArrow=classic;html=1;rounded=0;exitX=0.72;exitY=0.5;exitDx=0;exitDy=0;exitPerimeter=0;curved=1;" edge="1" parent="ELsuJAQM_qr_vNhGC3J8-18">
          <mxGeometry width="50" height="50" relative="1" as="geometry">
            <mxPoint x="20" y="4" as="sourcePoint" />
            <mxPoint x="36.960000000000036" y="24.999999999999943" as="targetPoint" />
            <Array as="points">
              <mxPoint x="31.960000000000036" y="5.999999999999943" />
            </Array>
          </mxGeometry>
        </mxCell>
        <mxCell id="2fbRog4UQWhd4MV1ygr6-86" value="$$\Phi_1$$" style="text;html=1;align=center;verticalAlign=middle;resizable=0;points=[];autosize=1;strokeColor=none;fillColor=none;" vertex="1" parent="ELsuJAQM_qr_vNhGC3J8-18">
          <mxGeometry x="-3" y="-16" width="79" height="26" as="geometry" />
        </mxCell>
        <mxCell id="ELsuJAQM_qr_vNhGC3J8-19" style="endArrow=none;edgeStyle=orthogonalEdgeStyle;rounded=0;orthogonalLoop=1;jettySize=auto;html=1;" edge="1" parent="1" source="ELsuJAQM_qr_vNhGC3J8-20">
          <mxGeometry relative="1" as="geometry">
            <mxPoint x="-88" y="240.1709380842682" as="targetPoint" />
          </mxGeometry>
        </mxCell>
        <mxCell id="ELsuJAQM_qr_vNhGC3J8-20" value="" style="pointerEvents=1;verticalLabelPosition=bottom;shadow=0;dashed=0;align=center;html=1;verticalAlign=top;shape=mxgraph.electrical.signal_sources.signal_ground;" vertex="1" parent="1">
          <mxGeometry x="-107" y="248" width="38" height="25" as="geometry" />
        </mxCell>
        <mxCell id="ELsuJAQM_qr_vNhGC3J8-21" value="" style="group;rotation=90;" vertex="1" connectable="0" parent="1">
          <mxGeometry x="-109" y="184" width="44" height="40" as="geometry" />
        </mxCell>
        <mxCell id="ELsuJAQM_qr_vNhGC3J8-22" value="" style="endArrow=none;html=1;rounded=0;exitX=1;exitY=0.5;exitDx=0;exitDy=0;exitPerimeter=0;" edge="1" parent="ELsuJAQM_qr_vNhGC3J8-21">
          <mxGeometry width="50" height="50" relative="1" as="geometry">
            <mxPoint x="22" y="21" as="sourcePoint" />
            <mxPoint x="35" y="45" as="targetPoint" />
          </mxGeometry>
        </mxCell>
        <mxCell id="ELsuJAQM_qr_vNhGC3J8-23" value="" style="shape=waypoint;sketch=0;fillStyle=solid;size=6;pointerEvents=1;points=[];fillColor=none;resizable=0;rotatable=0;perimeter=centerPerimeter;snapToPoint=1;verticalAlign=middle;spacingBottom=0;spacingTop=0;fontFamily=Verdana;fontSize=12;labelPosition=center;verticalLabelPosition=middle;align=left;spacingRight=0;spacingLeft=6;rotation=90;" vertex="1" parent="ELsuJAQM_qr_vNhGC3J8-21">
          <mxGeometry x="2" y="1" width="40" height="40" as="geometry" />
        </mxCell>
        <mxCell id="ELsuJAQM_qr_vNhGC3J8-24" value="" style="endArrow=none;html=1;rounded=0;" edge="1" parent="ELsuJAQM_qr_vNhGC3J8-21">
          <mxGeometry width="50" height="50" relative="1" as="geometry">
            <mxPoint x="21.799999999999997" y="23" as="sourcePoint" />
            <mxPoint x="21.799999999999997" y="-14" as="targetPoint" />
          </mxGeometry>
        </mxCell>
        <mxCell id="2fbRog4UQWhd4MV1ygr6-71" value="" style="endArrow=classic;html=1;rounded=0;curved=1;" edge="1" parent="ELsuJAQM_qr_vNhGC3J8-21">
          <mxGeometry width="50" height="50" relative="1" as="geometry">
            <mxPoint x="38" y="22" as="sourcePoint" />
            <mxPoint x="18" y="35" as="targetPoint" />
            <Array as="points">
              <mxPoint x="44" y="41" />
            </Array>
          </mxGeometry>
        </mxCell>
        <mxCell id="ELsuJAQM_qr_vNhGC3J8-25" value="" style="endArrow=none;html=1;rounded=0;entryX=0;entryY=0.5;entryDx=0;entryDy=0;entryPerimeter=0;" edge="1" parent="1" target="NL0Lb7cE0S0yHoRJVN3A-5">
          <mxGeometry width="50" height="50" relative="1" as="geometry">
            <mxPoint x="-117" y="170" as="sourcePoint" />
            <mxPoint x="-157" y="224" as="targetPoint" />
          </mxGeometry>
        </mxCell>
        <mxCell id="ELsuJAQM_qr_vNhGC3J8-32" value="" style="shape=waypoint;sketch=0;fillStyle=solid;size=6;pointerEvents=1;points=[];fillColor=none;resizable=0;rotatable=0;perimeter=centerPerimeter;snapToPoint=1;verticalAlign=middle;spacingBottom=0;spacingTop=0;fontFamily=Verdana;fontSize=12;labelPosition=center;verticalLabelPosition=middle;align=left;spacingRight=0;spacingLeft=6;" vertex="1" parent="1">
          <mxGeometry x="-107" y="150" width="40" height="40" as="geometry" />
        </mxCell>
        <mxCell id="2fbRog4UQWhd4MV1ygr6-3" value="V&lt;sub&gt;in&lt;/sub&gt;" style="text;html=1;align=center;verticalAlign=middle;resizable=0;points=[];autosize=1;strokeColor=none;fillColor=none;" vertex="1" parent="1">
          <mxGeometry x="-196" y="144" width="40" height="30" as="geometry" />
        </mxCell>
        <mxCell id="2fbRog4UQWhd4MV1ygr6-4" value="" style="endArrow=none;html=1;rounded=0;" edge="1" parent="1" target="ELsuJAQM_qr_vNhGC3J8-1">
          <mxGeometry width="50" height="50" relative="1" as="geometry">
            <mxPoint x="19" y="171" as="sourcePoint" />
            <mxPoint x="132" y="170" as="targetPoint" />
          </mxGeometry>
        </mxCell>
        <mxCell id="2fbRog4UQWhd4MV1ygr6-30" style="endArrow=non;edgeStyle=orthogonalEdgeStyle;rounded=0;orthogonalLoop=1;jettySize=auto;html=1;" edge="1" parent="1" source="ELsuJAQM_qr_vNhGC3J8-1">
          <mxGeometry relative="1" as="geometry">
            <mxPoint x="-39" y="359" as="targetPoint" />
            <Array as="points">
              <mxPoint x="61" y="359" />
              <mxPoint x="-39" y="359" />
            </Array>
          </mxGeometry>
        </mxCell>
        <mxCell id="ELsuJAQM_qr_vNhGC3J8-1" value="" style="shape=waypoint;sketch=0;fillStyle=solid;size=6;pointerEvents=1;points=[];fillColor=none;resizable=0;rotatable=0;perimeter=centerPerimeter;snapToPoint=1;verticalAlign=middle;spacingBottom=0;spacingTop=0;fontFamily=Verdana;fontSize=12;labelPosition=center;verticalLabelPosition=middle;align=left;spacingRight=0;spacingLeft=6;" vertex="1" parent="1">
          <mxGeometry x="41" y="150" width="40" height="40" as="geometry" />
        </mxCell>
        <mxCell id="2fbRog4UQWhd4MV1ygr6-6" value="" style="pointerEvents=1;verticalLabelPosition=bottom;shadow=0;dashed=0;align=center;html=1;verticalAlign=top;shape=mxgraph.electrical.capacitors.capacitor_1;" vertex="1" parent="1">
          <mxGeometry x="-141" y="339" width="77" height="40" as="geometry" />
        </mxCell>
        <mxCell id="2fbRog4UQWhd4MV1ygr6-7" value="" style="endArrow=none;html=1;rounded=0;exitX=1;exitY=0.5;exitDx=0;exitDy=0;exitPerimeter=0;" edge="1" parent="1" source="2fbRog4UQWhd4MV1ygr6-6">
          <mxGeometry width="50" height="50" relative="1" as="geometry">
            <mxPoint x="16" y="434" as="sourcePoint" />
            <mxPoint x="-40" y="346" as="targetPoint" />
          </mxGeometry>
        </mxCell>
        <mxCell id="2fbRog4UQWhd4MV1ygr6-8" value="" style="shape=waypoint;sketch=0;fillStyle=solid;size=6;pointerEvents=1;points=[];fillColor=none;resizable=0;rotatable=0;perimeter=centerPerimeter;snapToPoint=1;verticalAlign=middle;spacingBottom=0;spacingTop=0;fontFamily=Verdana;fontSize=12;labelPosition=center;verticalLabelPosition=middle;align=left;spacingRight=0;spacingLeft=6;" vertex="1" parent="1">
          <mxGeometry x="-84" y="339" width="40" height="40" as="geometry" />
        </mxCell>
        <mxCell id="2fbRog4UQWhd4MV1ygr6-9" value="" style="endArrow=none;html=1;rounded=0;" edge="1" parent="1" target="2fbRog4UQWhd4MV1ygr6-8">
          <mxGeometry width="50" height="50" relative="1" as="geometry">
            <mxPoint x="-64" y="396" as="sourcePoint" />
            <mxPoint x="38" y="528" as="targetPoint" />
          </mxGeometry>
        </mxCell>
        <mxCell id="2fbRog4UQWhd4MV1ygr6-10" style="endArrow=none;edgeStyle=orthogonalEdgeStyle;rounded=0;orthogonalLoop=1;jettySize=auto;html=1;" edge="1" parent="1" source="2fbRog4UQWhd4MV1ygr6-11">
          <mxGeometry relative="1" as="geometry">
            <mxPoint x="-64" y="432.1709380842682" as="targetPoint" />
          </mxGeometry>
        </mxCell>
        <mxCell id="2fbRog4UQWhd4MV1ygr6-11" value="" style="pointerEvents=1;verticalLabelPosition=bottom;shadow=0;dashed=0;align=center;html=1;verticalAlign=top;shape=mxgraph.electrical.signal_sources.signal_ground;" vertex="1" parent="1">
          <mxGeometry x="-83" y="440" width="38" height="25" as="geometry" />
        </mxCell>
        <mxCell id="2fbRog4UQWhd4MV1ygr6-12" value="" style="group;rotation=90;" vertex="1" connectable="0" parent="1">
          <mxGeometry x="-85" y="376" width="44" height="40" as="geometry" />
        </mxCell>
        <mxCell id="2fbRog4UQWhd4MV1ygr6-13" value="" style="endArrow=none;html=1;rounded=0;exitX=1;exitY=0.5;exitDx=0;exitDy=0;exitPerimeter=0;" edge="1" parent="2fbRog4UQWhd4MV1ygr6-12">
          <mxGeometry width="50" height="50" relative="1" as="geometry">
            <mxPoint x="22" y="18" as="sourcePoint" />
            <mxPoint x="35" y="42" as="targetPoint" />
          </mxGeometry>
        </mxCell>
        <mxCell id="2fbRog4UQWhd4MV1ygr6-14" value="" style="shape=waypoint;sketch=0;fillStyle=solid;size=6;pointerEvents=1;points=[];fillColor=none;resizable=0;rotatable=0;perimeter=centerPerimeter;snapToPoint=1;verticalAlign=middle;spacingBottom=0;spacingTop=0;fontFamily=Verdana;fontSize=12;labelPosition=center;verticalLabelPosition=middle;align=left;spacingRight=0;spacingLeft=6;rotation=90;" vertex="1" parent="2fbRog4UQWhd4MV1ygr6-12">
          <mxGeometry x="2" y="-2" width="40" height="40" as="geometry" />
        </mxCell>
        <mxCell id="2fbRog4UQWhd4MV1ygr6-81" value="" style="endArrow=classic;html=1;rounded=0;curved=1;" edge="1" parent="2fbRog4UQWhd4MV1ygr6-12">
          <mxGeometry width="50" height="50" relative="1" as="geometry">
            <mxPoint x="32" y="19" as="sourcePoint" />
            <mxPoint x="12" y="32" as="targetPoint" />
            <Array as="points">
              <mxPoint x="38" y="38" />
            </Array>
          </mxGeometry>
        </mxCell>
        <mxCell id="2fbRog4UQWhd4MV1ygr6-15" value="" style="group" vertex="1" connectable="0" parent="1">
          <mxGeometry x="-293" y="367" width="44" height="40" as="geometry" />
        </mxCell>
        <mxCell id="2fbRog4UQWhd4MV1ygr6-16" value="" style="endArrow=none;html=1;rounded=0;exitX=1;exitY=0.5;exitDx=0;exitDy=0;exitPerimeter=0;" edge="1" parent="2fbRog4UQWhd4MV1ygr6-15">
          <mxGeometry width="50" height="50" relative="1" as="geometry">
            <mxPoint x="20" y="20" as="sourcePoint" />
            <mxPoint x="44" y="7" as="targetPoint" />
          </mxGeometry>
        </mxCell>
        <mxCell id="2fbRog4UQWhd4MV1ygr6-17" value="" style="shape=waypoint;sketch=0;fillStyle=solid;size=6;pointerEvents=1;points=[];fillColor=none;resizable=0;rotatable=0;perimeter=centerPerimeter;snapToPoint=1;verticalAlign=middle;spacingBottom=0;spacingTop=0;fontFamily=Verdana;fontSize=12;labelPosition=center;verticalLabelPosition=middle;align=left;spacingRight=0;spacingLeft=6;" vertex="1" parent="2fbRog4UQWhd4MV1ygr6-15">
          <mxGeometry width="40" height="40" as="geometry" />
        </mxCell>
        <mxCell id="2fbRog4UQWhd4MV1ygr6-18" style="endArrow=none;edgeStyle=orthogonalEdgeStyle;rounded=0;orthogonalLoop=1;jettySize=auto;html=1;entryX=0;entryY=0.5;entryDx=0;entryDy=0;" edge="1" parent="2fbRog4UQWhd4MV1ygr6-15" source="2fbRog4UQWhd4MV1ygr6-19">
          <mxGeometry relative="1" as="geometry">
            <mxPoint x="19" y="20" as="targetPoint" />
          </mxGeometry>
        </mxCell>
        <mxCell id="2fbRog4UQWhd4MV1ygr6-19" value="" style="verticalLabelPosition=bottom;shadow=0;dashed=0;align=center;html=1;verticalAlign=top;shape=mxgraph.electrical.logic_gates.inverting_contact;" vertex="1" parent="2fbRog4UQWhd4MV1ygr6-15">
          <mxGeometry x="-30" y="15" width="10" height="10" as="geometry" />
        </mxCell>
        <mxCell id="2fbRog4UQWhd4MV1ygr6-51" value="" style="endArrow=classic;html=1;rounded=0;exitX=0.72;exitY=0.5;exitDx=0;exitDy=0;exitPerimeter=0;curved=1;" edge="1" parent="2fbRog4UQWhd4MV1ygr6-15">
          <mxGeometry width="50" height="50" relative="1" as="geometry">
            <mxPoint x="20" y="4" as="sourcePoint" />
            <mxPoint x="36.960000000000036" y="24.999999999999943" as="targetPoint" />
            <Array as="points">
              <mxPoint x="31.960000000000036" y="5.999999999999943" />
            </Array>
          </mxGeometry>
        </mxCell>
        <mxCell id="2fbRog4UQWhd4MV1ygr6-20" style="endArrow=none;edgeStyle=orthogonalEdgeStyle;rounded=0;orthogonalLoop=1;jettySize=auto;html=1;" edge="1" parent="1" source="2fbRog4UQWhd4MV1ygr6-21">
          <mxGeometry relative="1" as="geometry">
            <mxPoint x="-142" y="429.1709380842682" as="targetPoint" />
          </mxGeometry>
        </mxCell>
        <mxCell id="2fbRog4UQWhd4MV1ygr6-21" value="" style="pointerEvents=1;verticalLabelPosition=bottom;shadow=0;dashed=0;align=center;html=1;verticalAlign=top;shape=mxgraph.electrical.signal_sources.signal_ground;" vertex="1" parent="1">
          <mxGeometry x="-161" y="437" width="38" height="25" as="geometry" />
        </mxCell>
        <mxCell id="2fbRog4UQWhd4MV1ygr6-22" value="" style="group;rotation=90;" vertex="1" connectable="0" parent="1">
          <mxGeometry x="-163" y="373" width="83" height="40" as="geometry" />
        </mxCell>
        <mxCell id="2fbRog4UQWhd4MV1ygr6-23" value="" style="endArrow=none;html=1;rounded=0;exitX=1;exitY=0.5;exitDx=0;exitDy=0;exitPerimeter=0;" edge="1" parent="2fbRog4UQWhd4MV1ygr6-22">
          <mxGeometry width="50" height="50" relative="1" as="geometry">
            <mxPoint x="22" y="21" as="sourcePoint" />
            <mxPoint x="35" y="45" as="targetPoint" />
          </mxGeometry>
        </mxCell>
        <mxCell id="2fbRog4UQWhd4MV1ygr6-24" value="" style="shape=waypoint;sketch=0;fillStyle=solid;size=6;pointerEvents=1;points=[];fillColor=none;resizable=0;rotatable=0;perimeter=centerPerimeter;snapToPoint=1;verticalAlign=middle;spacingBottom=0;spacingTop=0;fontFamily=Verdana;fontSize=12;labelPosition=center;verticalLabelPosition=middle;align=left;spacingRight=0;spacingLeft=6;rotation=90;" vertex="1" parent="2fbRog4UQWhd4MV1ygr6-22">
          <mxGeometry x="2" y="1" width="40" height="40" as="geometry" />
        </mxCell>
        <mxCell id="2fbRog4UQWhd4MV1ygr6-25" value="" style="endArrow=none;html=1;rounded=0;" edge="1" parent="2fbRog4UQWhd4MV1ygr6-22">
          <mxGeometry width="50" height="50" relative="1" as="geometry">
            <mxPoint x="21.799999999999997" y="23" as="sourcePoint" />
            <mxPoint x="21.799999999999997" y="-14" as="targetPoint" />
          </mxGeometry>
        </mxCell>
        <mxCell id="2fbRog4UQWhd4MV1ygr6-82" value="" style="endArrow=classic;html=1;rounded=0;curved=1;" edge="1" parent="2fbRog4UQWhd4MV1ygr6-22">
          <mxGeometry width="50" height="50" relative="1" as="geometry">
            <mxPoint x="31" y="21" as="sourcePoint" />
            <mxPoint x="11" y="34" as="targetPoint" />
            <Array as="points">
              <mxPoint x="37" y="40" />
            </Array>
          </mxGeometry>
        </mxCell>
        <mxCell id="2fbRog4UQWhd4MV1ygr6-90" value="$$\Phi_2$$" style="text;html=1;align=center;verticalAlign=middle;resizable=0;points=[];autosize=1;strokeColor=none;fillColor=none;" vertex="1" parent="2fbRog4UQWhd4MV1ygr6-22">
          <mxGeometry x="4" y="14" width="79" height="26" as="geometry" />
        </mxCell>
        <mxCell id="2fbRog4UQWhd4MV1ygr6-26" value="" style="endArrow=none;html=1;rounded=0;entryX=0;entryY=0.5;entryDx=0;entryDy=0;entryPerimeter=0;" edge="1" parent="1" target="2fbRog4UQWhd4MV1ygr6-6">
          <mxGeometry width="50" height="50" relative="1" as="geometry">
            <mxPoint x="-212" y="359" as="sourcePoint" />
            <mxPoint x="-211" y="413" as="targetPoint" />
          </mxGeometry>
        </mxCell>
        <mxCell id="2fbRog4UQWhd4MV1ygr6-27" value="" style="shape=waypoint;sketch=0;fillStyle=solid;size=6;pointerEvents=1;points=[];fillColor=none;resizable=0;rotatable=0;perimeter=centerPerimeter;snapToPoint=1;verticalAlign=middle;spacingBottom=0;spacingTop=0;fontFamily=Verdana;fontSize=12;labelPosition=center;verticalLabelPosition=middle;align=left;spacingRight=0;spacingLeft=6;" vertex="1" parent="1">
          <mxGeometry x="-161" y="339" width="40" height="40" as="geometry" />
        </mxCell>
        <mxCell id="2fbRog4UQWhd4MV1ygr6-28" value="$${ \text{bit}}\cdot\Phi_1$$" style="text;html=1;align=center;verticalAlign=middle;resizable=0;points=[];autosize=1;strokeColor=none;fillColor=none;" vertex="1" parent="1">
          <mxGeometry x="-352.5" y="347" width="159" height="26" as="geometry" />
        </mxCell>
        <mxCell id="2fbRog4UQWhd4MV1ygr6-31" value="" style="group" vertex="1" connectable="0" parent="1">
          <mxGeometry x="-295" y="311" width="44" height="40" as="geometry" />
        </mxCell>
        <mxCell id="2fbRog4UQWhd4MV1ygr6-32" value="" style="endArrow=none;html=1;rounded=0;exitX=1;exitY=0.5;exitDx=0;exitDy=0;exitPerimeter=0;" edge="1" parent="2fbRog4UQWhd4MV1ygr6-31">
          <mxGeometry width="50" height="50" relative="1" as="geometry">
            <mxPoint x="20" y="20" as="sourcePoint" />
            <mxPoint x="44" y="7" as="targetPoint" />
          </mxGeometry>
        </mxCell>
        <mxCell id="2fbRog4UQWhd4MV1ygr6-33" value="" style="shape=waypoint;sketch=0;fillStyle=solid;size=6;pointerEvents=1;points=[];fillColor=none;resizable=0;rotatable=0;perimeter=centerPerimeter;snapToPoint=1;verticalAlign=middle;spacingBottom=0;spacingTop=0;fontFamily=Verdana;fontSize=12;labelPosition=center;verticalLabelPosition=middle;align=left;spacingRight=0;spacingLeft=6;" vertex="1" parent="2fbRog4UQWhd4MV1ygr6-31">
          <mxGeometry width="40" height="40" as="geometry" />
        </mxCell>
        <mxCell id="2fbRog4UQWhd4MV1ygr6-34" style="endArrow=none;edgeStyle=orthogonalEdgeStyle;rounded=0;orthogonalLoop=1;jettySize=auto;html=1;entryX=0;entryY=0.5;entryDx=0;entryDy=0;" edge="1" parent="2fbRog4UQWhd4MV1ygr6-31" source="2fbRog4UQWhd4MV1ygr6-35">
          <mxGeometry relative="1" as="geometry">
            <mxPoint x="19" y="20" as="targetPoint" />
          </mxGeometry>
        </mxCell>
        <mxCell id="2fbRog4UQWhd4MV1ygr6-35" value="" style="verticalLabelPosition=bottom;shadow=0;dashed=0;align=center;html=1;verticalAlign=top;shape=mxgraph.electrical.logic_gates.inverting_contact;" vertex="1" parent="2fbRog4UQWhd4MV1ygr6-31">
          <mxGeometry x="-30" y="15" width="10" height="10" as="geometry" />
        </mxCell>
        <mxCell id="2fbRog4UQWhd4MV1ygr6-36" value="$$\neg{ \text{bit}}\cdot\Phi_1$$" style="text;html=1;align=center;verticalAlign=middle;resizable=0;points=[];autosize=1;strokeColor=none;fillColor=none;" vertex="1" parent="1">
          <mxGeometry x="-343" y="291" width="182" height="26" as="geometry" />
        </mxCell>
        <mxCell id="2fbRog4UQWhd4MV1ygr6-39" style="endArrow=none;edgeStyle=orthogonalEdgeStyle;rounded=0;orthogonalLoop=1;jettySize=auto;html=1;" edge="1" parent="1" source="2fbRog4UQWhd4MV1ygr6-38">
          <mxGeometry relative="1" as="geometry">
            <mxPoint x="-252" y="330" as="targetPoint" />
            <Array as="points">
              <mxPoint x="-210" y="331" />
            </Array>
          </mxGeometry>
        </mxCell>
        <mxCell id="2fbRog4UQWhd4MV1ygr6-40" style="endArrow=none;edgeStyle=orthogonalEdgeStyle;rounded=0;orthogonalLoop=1;jettySize=auto;html=1;" edge="1" parent="1" source="2fbRog4UQWhd4MV1ygr6-38">
          <mxGeometry relative="1" as="geometry">
            <mxPoint x="-251" y="388" as="targetPoint" />
            <Array as="points">
              <mxPoint x="-210" y="387" />
            </Array>
          </mxGeometry>
        </mxCell>
        <mxCell id="2fbRog4UQWhd4MV1ygr6-38" value="" style="shape=waypoint;sketch=0;fillStyle=solid;size=6;pointerEvents=1;points=[];fillColor=none;resizable=0;rotatable=0;perimeter=centerPerimeter;snapToPoint=1;verticalAlign=middle;spacingBottom=0;spacingTop=0;fontFamily=Verdana;fontSize=12;labelPosition=center;verticalLabelPosition=middle;align=left;spacingRight=0;spacingLeft=6;" vertex="1" parent="1">
          <mxGeometry x="-230" y="339" width="40" height="40" as="geometry" />
        </mxCell>
        <mxCell id="2fbRog4UQWhd4MV1ygr6-41" value="" style="group;flipH=1;" vertex="1" connectable="0" parent="1">
          <mxGeometry x="348" y="180" width="57" height="40" as="geometry" />
        </mxCell>
        <mxCell id="2fbRog4UQWhd4MV1ygr6-42" value="" style="endArrow=none;html=1;rounded=0;exitX=1;exitY=0.5;exitDx=0;exitDy=0;exitPerimeter=0;" edge="1" parent="2fbRog4UQWhd4MV1ygr6-41">
          <mxGeometry width="50" height="50" relative="1" as="geometry">
            <mxPoint x="24" y="20" as="sourcePoint" />
            <mxPoint y="7" as="targetPoint" />
          </mxGeometry>
        </mxCell>
        <mxCell id="2fbRog4UQWhd4MV1ygr6-43" value="" style="shape=waypoint;sketch=0;fillStyle=solid;size=6;pointerEvents=1;points=[];fillColor=none;resizable=0;rotatable=0;perimeter=centerPerimeter;snapToPoint=1;verticalAlign=middle;spacingBottom=0;spacingTop=0;fontFamily=Verdana;fontSize=12;labelPosition=center;verticalLabelPosition=middle;align=left;spacingRight=0;spacingLeft=6;" vertex="1" parent="2fbRog4UQWhd4MV1ygr6-41">
          <mxGeometry x="4" width="40" height="40" as="geometry" />
        </mxCell>
        <mxCell id="2fbRog4UQWhd4MV1ygr6-44" style="endArrow=none;edgeStyle=orthogonalEdgeStyle;rounded=0;orthogonalLoop=1;jettySize=auto;html=1;entryX=0;entryY=0.5;entryDx=0;entryDy=0;" edge="1" parent="2fbRog4UQWhd4MV1ygr6-41" source="2fbRog4UQWhd4MV1ygr6-45">
          <mxGeometry relative="1" as="geometry">
            <mxPoint x="25" y="20" as="targetPoint" />
          </mxGeometry>
        </mxCell>
        <mxCell id="2fbRog4UQWhd4MV1ygr6-45" value="" style="verticalLabelPosition=bottom;shadow=0;dashed=0;align=center;html=1;verticalAlign=top;shape=mxgraph.electrical.logic_gates.inverting_contact;" vertex="1" parent="2fbRog4UQWhd4MV1ygr6-41">
          <mxGeometry x="64" y="15" width="10" height="10" as="geometry" />
        </mxCell>
        <mxCell id="2fbRog4UQWhd4MV1ygr6-79" value="" style="endArrow=classic;html=1;rounded=0;exitX=0.72;exitY=0.5;exitDx=0;exitDy=0;exitPerimeter=0;curved=1;" edge="1" parent="2fbRog4UQWhd4MV1ygr6-41">
          <mxGeometry width="50" height="50" relative="1" as="geometry">
            <mxPoint x="23.960000000000036" y="7" as="sourcePoint" />
            <mxPoint x="7" y="27.999999999999943" as="targetPoint" />
            <Array as="points">
              <mxPoint x="12" y="8.999999999999943" />
            </Array>
          </mxGeometry>
        </mxCell>
        <mxCell id="2fbRog4UQWhd4MV1ygr6-87" value="$$\Phi_1$$" style="text;html=1;align=center;verticalAlign=middle;resizable=0;points=[];autosize=1;strokeColor=none;fillColor=none;" vertex="1" parent="2fbRog4UQWhd4MV1ygr6-41">
          <mxGeometry x="-22" y="-11" width="79" height="26" as="geometry" />
        </mxCell>
        <mxCell id="2fbRog4UQWhd4MV1ygr6-46" value="V&lt;sub&gt;out&lt;/sub&gt;" style="text;html=1;align=center;verticalAlign=middle;resizable=0;points=[];autosize=1;strokeColor=none;fillColor=none;flipH=1;" vertex="1" parent="1">
          <mxGeometry x="381" y="170" width="40" height="29" as="geometry" />
        </mxCell>
        <mxCell id="2fbRog4UQWhd4MV1ygr6-50" value="" style="endArrow=classic;html=1;rounded=0;exitX=0.72;exitY=0.5;exitDx=0;exitDy=0;exitPerimeter=0;curved=1;" edge="1" parent="1">
          <mxGeometry width="50" height="50" relative="1" as="geometry">
            <mxPoint x="-272.96000000000004" y="317.00000000000006" as="sourcePoint" />
            <mxPoint x="-256" y="338" as="targetPoint" />
            <Array as="points">
              <mxPoint x="-261" y="319" />
            </Array>
          </mxGeometry>
        </mxCell>
        <mxCell id="2fbRog4UQWhd4MV1ygr6-52" value="$$-V_{ref}$$" style="text;html=1;align=center;verticalAlign=middle;resizable=0;points=[];autosize=1;strokeColor=none;fillColor=none;" vertex="1" parent="1">
          <mxGeometry x="-385" y="319" width="85" height="26" as="geometry" />
        </mxCell>
        <mxCell id="2fbRog4UQWhd4MV1ygr6-53" value="$$V_{ref}$$" style="text;html=1;align=center;verticalAlign=middle;resizable=0;points=[];autosize=1;strokeColor=none;fillColor=none;" vertex="1" parent="1">
          <mxGeometry x="-383" y="363" width="81" height="26" as="geometry" />
        </mxCell>
        <mxCell id="2fbRog4UQWhd4MV1ygr6-54" value="$$C_3$$" style="text;html=1;align=center;verticalAlign=middle;resizable=0;points=[];autosize=1;strokeColor=none;fillColor=none;" vertex="1" parent="1">
          <mxGeometry x="-135" y="306" width="67" height="26" as="geometry" />
        </mxCell>
        <mxCell id="2fbRog4UQWhd4MV1ygr6-55" value="$$C_1$$" style="text;html=1;align=center;verticalAlign=middle;resizable=0;points=[];autosize=1;strokeColor=none;fillColor=none;" vertex="1" parent="1">
          <mxGeometry x="-84" y="124" width="67" height="26" as="geometry" />
        </mxCell>
        <mxCell id="2fbRog4UQWhd4MV1ygr6-56" value="$$C_2$$" style="text;html=1;align=center;verticalAlign=middle;resizable=0;points=[];autosize=1;strokeColor=none;fillColor=none;" vertex="1" parent="1">
          <mxGeometry x="174" y="44" width="67" height="26" as="geometry" />
        </mxCell>
        <mxCell id="2fbRog4UQWhd4MV1ygr6-70" value="" style="endArrow=classic;html=1;rounded=0;exitX=0.72;exitY=0.5;exitDx=0;exitDy=0;exitPerimeter=0;curved=1;" edge="1" parent="1">
          <mxGeometry width="50" height="50" relative="1" as="geometry">
            <mxPoint x="-61.96" y="345" as="sourcePoint" />
            <mxPoint x="-44.999999999999964" y="365.99999999999994" as="targetPoint" />
            <Array as="points">
              <mxPoint x="-49.999999999999964" y="346.99999999999994" />
            </Array>
          </mxGeometry>
        </mxCell>
        <mxCell id="2fbRog4UQWhd4MV1ygr6-78" value="" style="endArrow=classic;html=1;rounded=0;exitX=0.72;exitY=0.5;exitDx=0;exitDy=0;exitPerimeter=0;curved=1;" edge="1" parent="1">
          <mxGeometry width="50" height="50" relative="1" as="geometry">
            <mxPoint x="-7.959999999999994" y="153" as="sourcePoint" />
            <mxPoint x="9.000000000000043" y="173.99999999999994" as="targetPoint" />
            <Array as="points">
              <mxPoint x="4.000000000000043" y="154.99999999999994" />
            </Array>
          </mxGeometry>
        </mxCell>
        <mxCell id="2fbRog4UQWhd4MV1ygr6-83" value="$$\Phi_1$$" style="text;html=1;align=center;verticalAlign=middle;resizable=0;points=[];autosize=1;strokeColor=none;fillColor=none;" vertex="1" parent="1">
          <mxGeometry x="-76" y="394" width="79" height="26" as="geometry" />
        </mxCell>
        <mxCell id="2fbRog4UQWhd4MV1ygr6-84" value="$$\Phi_1$$" style="text;html=1;align=center;verticalAlign=middle;resizable=0;points=[];autosize=1;strokeColor=none;fillColor=none;" vertex="1" parent="1">
          <mxGeometry x="-20" y="198" width="79" height="26" as="geometry" />
        </mxCell>
        <mxCell id="2fbRog4UQWhd4MV1ygr6-88" value="$$\Phi_2$$" style="text;html=1;align=center;verticalAlign=middle;resizable=0;points=[];autosize=1;strokeColor=none;fillColor=none;" vertex="1" parent="1">
          <mxGeometry x="-99" y="201" width="79" height="26" as="geometry" />
        </mxCell>
        <mxCell id="2fbRog4UQWhd4MV1ygr6-89" value="$$\Phi_2$$" style="text;html=1;align=center;verticalAlign=middle;resizable=0;points=[];autosize=1;strokeColor=none;fillColor=none;" vertex="1" parent="1">
          <mxGeometry x="-31" y="135" width="79" height="26" as="geometry" />
        </mxCell>
        <mxCell id="2fbRog4UQWhd4MV1ygr6-91" value="$$\Phi_2$$" style="text;html=1;align=center;verticalAlign=middle;resizable=0;points=[];autosize=1;strokeColor=none;fillColor=none;" vertex="1" parent="1">
          <mxGeometry x="-89" y="325" width="79" height="26" as="geometry" />
        </mxCell>
      </root>
    </mxGraphModel>
  </diagram>
</mxfile>
